<svg viewBox="0 0 800 500" xmlns="http://www.w3.org/2000/svg">
  <!-- Background -->
  <rect x="0" y="0" width="800" height="500" fill="#f8f9fa" rx="10" ry="10"/>
  
  <!-- Title -->
  <text x="400" y="30" font-family="Arial, sans-serif" font-size="20" font-weight="bold" text-anchor="middle" fill="#333">Pong Game Monitoring Architecture</text>
  
  <!-- Player Section -->
  <rect x="50" y="70" width="120" height="60" rx="10" ry="10" fill="#e3f2fd" stroke="#2196f3" stroke-width="2"/>
  <text x="110" y="105" font-family="Arial, sans-serif" font-size="14" font-weight="bold" text-anchor="middle">Player</text>
  
  <!-- Fastify Section -->
  <rect x="250" y="60" width="250" height="180" rx="10" ry="10" fill="#e8f5e9" stroke="#4caf50" stroke-width="2"/>
  <text x="375" y="85" font-family="Arial, sans-serif" font-size="16" font-weight="bold" text-anchor="middle" fill="#2e7d32">Fastify (Game Server)</text>
  
  <!-- Fastify Components -->
  <rect x="270" y="100" width="210" height="40" rx="5" ry="5" fill="#c8e6c9" stroke="#4caf50" stroke-width="1"/>
  <text x="375" y="125" font-family="Arial, sans-serif" font-size="12" text-anchor="middle">Game Logic Controller</text>
  
  <rect x="270" y="150" width="210" height="40" rx="5" ry="5" fill="#c8e6c9" stroke="#4caf50" stroke-width="1"/>
  <text x="375" y="175" font-family="Arial, sans-serif" font-size="12" text-anchor="middle">fastify-metrics Plugin</text>
  
  <rect x="270" y="200" width="100" height="30" rx="5" ry="5" fill="#a5d6a7" stroke="#4caf50" stroke-width="1"/>
  <text x="320" y="220" font-family="Arial, sans-serif" font-size="11" text-anchor="middle">/game Endpoint</text>
  
  <rect x="380" y="200" width="100" height="30" rx="5" ry="5" fill="#a5d6a7" stroke="#4caf50" stroke-width="1"/>
  <text x="430" y="220" font-family="Arial, sans-serif" font-size="11" text-anchor="middle">/metrics Endpoint</text>
  
  <!-- Prometheus Section -->
  <rect x="250" y="280" width="250" height="120" rx="10" ry="10" fill="#fff3e0" stroke="#ff9800" stroke-width="2"/>
  <text x="375" y="305" font-family="Arial, sans-serif" font-size="16" font-weight="bold" text-anchor="middle" fill="#e65100">Prometheus (Metrics)</text>
  
  <!-- Prometheus Components -->
  <rect x="270" y="320" width="210" height="30" rx="5" ry="5" fill="#ffe0b2" stroke="#ff9800" stroke-width="1"/>
  <text x="375" y="340" font-family="Arial, sans-serif" font-size="12" text-anchor="middle">Scraper (15s intervals)</text>
  
  <rect x="270" y="360" width="210" height="30" rx="5" ry="5" fill="#ffe0b2" stroke="#ff9800" stroke-width="1"/>
  <text x="375" y="380" font-family="Arial, sans-serif" font-size="12" text-anchor="middle">Time-Series Database</text>
  
  <!-- Grafana Section -->
  <rect x="580" y="170" width="170" height="120" rx="10" ry="10" fill="#e1f5fe" stroke="#03a9f4" stroke-width="2"/>
  <text x="665" y="195" font-family="Arial, sans-serif" font-size="16" font-weight="bold" text-anchor="middle" fill="#01579b">Grafana (Dashboards)</text>
  
  <!-- Grafana Components -->
  <rect x="600" y="210" width="130" height="30" rx="5" ry="5" fill="#b3e5fc" stroke="#03a9f4" stroke-width="1"/>
  <text x="665" y="230" font-family="Arial, sans-serif" font-size="12" text-anchor="middle">Prometheus Data Source</text>
  
  <rect x="600" y="250" width="130" height="30" rx="5" ry="5" fill="#b3e5fc" stroke="#03a9f4" stroke-width="1"/>
  <text x="665" y="270" font-family="Arial, sans-serif" font-size="12" text-anchor="middle">Game Performance Dashboard</text>
  
  <!-- Metrics List -->
  <rect x="580" y="310" width="170" height="120" rx="5" ry="5" fill="#f5f5f5" stroke="#9e9e9e" stroke-width="1"/>
  <text x="665" y="330" font-family="Arial, sans-serif" font-size="12" font-weight="bold" text-anchor="middle">Key Metrics</text>
  <text x="590" y="350" font-family="Arial, sans-serif" font-size="10">• Request Duration</text>
  <text x="590" y="370" font-family="Arial, sans-serif" font-size="10">• Player Actions/sec</text>
  <text x="590" y="390" font-family="Arial, sans-serif" font-size="10">• HTTP Status Codes</text>
  <text x="590" y="410" font-family="Arial, sans-serif" font-size="10">• Memory/CPU Usage</text>
  
  <!-- Arrows -->
  <!-- Player to Fastify -->
  <line x1="170" y1="100" x2="250" y2="100" stroke="#666" stroke-width="2" marker-end="url(#arrowhead)"/>
  <text x="210" y="90" font-family="Arial, sans-serif" font-size="10" text-anchor="middle">Game Actions</text>
  
  <!-- Fastify Game to Player -->
  <line x1="250" y1="120" x2="170" y2="120" stroke="#666" stroke-width="2" marker-end="url(#arrowhead)"/>
  <text x="210" y="140" font-family="Arial, sans-serif" font-size="10" text-anchor="middle">Game State Updates</text>
  
  <!-- Fastify to Prometheus -->
  <line x1="430" y1="230" x2="430" y2="280" stroke="#666" stroke-width="2" marker-end="url(#arrowhead)"/>
  <text x="445" y="255" font-family="Arial, sans-serif" font-size="10" text-anchor="start">Scrape Metrics</text>
  
  <!-- Prometheus to Grafana -->
  <line x1="500" y1="340" x2="580" y2="240" stroke="#666" stroke-width="2" marker-end="url(#arrowhead)"/>
  <text x="540" y="270" font-family="Arial, sans-serif" font-size="10" text-anchor="middle">Query Data</text>
  
  <!-- Grafana to Admin -->
  <line x1="750" y1="230" x2="780" y2="230" stroke="#666" stroke-width="2" marker-end="url(#arrowhead)"/>
  <text x="765" y="220" font-family="Arial, sans-serif" font-size="10" text-anchor="middle">Visualize</text>
  
  <!-- Admin Icon -->
  <circle cx="790" cy="230" r="10" fill="#9575cd"/>
  <text x="790" y="233" font-family="Arial, sans-serif" font-size="10" font-weight="bold" text-anchor="middle" fill="white">A</text>
  
  <!-- Arrow definitions -->
  <defs>
    <marker id="arrowhead" markerWidth="10" markerHeight="7" refX="10" refY="3.5" orient="auto">
      <polygon points="0 0, 10 3.5, 0 7" fill="#666"/>
    </marker>
  </defs>
  
  <!-- Tech Info -->
  <text x="60" y="450" font-family="Arial, sans-serif" font-size="12" font-weight="bold" fill="#333">Libraries/Plugins:</text>
  <text x="60" y="470" font-family="Arial, sans-serif" font-size="11" fill="#333">• Fastify: fastify-metrics or prom-client</text>
  <text x="60" y="490" font-family="Arial, sans-serif" font-size="11" fill="#333">• Prometheus: prometheus-node.js or client libraries</text>
  <text x="350" y="470" font-family="Arial, sans-serif" font-size="11" fill="#333">• Grafana: Prometheus data source plugin</text>
  <text x="350" y="490" font-family="Arial, sans-serif" font-size="11" fill="#333">• HTTP/REST: All component communications</text>
</svg>