<svg xmlns="http://www.w3.org/2000/svg" viewBox="0 0 1200 900">
  <!-- Background -->
  <rect width="100%" height="100%" fill="#f8f9fa"/>
  
  <!-- Core System (Blue) -->
  <rect x="500" y="20" width="200" height="80" rx="10" fill="#007bff" stroke="#0056b3" stroke-width="2"/>
  <text x="600" y="65" font-family="Arial" font-size="16" text-anchor="middle" fill="white">Backend Framework</text>
  <text x="600" y="85" font-family="Arial" font-size="12" text-anchor="middle" fill="white">Fastify with Node.js</text>
  
  <rect x="500" y="140" width="200" height="80" rx="10" fill="#007bff" stroke="#0056b3" stroke-width="2"/>
  <text x="600" y="185" font-family="Arial" font-size="16" text-anchor="middle" fill="white">Frontend Framework</text>
  <text x="600" y="205" font-family="Arial" font-size="12" text-anchor="middle" fill="white">Tailwind CSS + TypeScript</text>
  
  <rect x="500" y="260" width="200" height="80" rx="10" fill="#007bff" stroke="#0056b3" stroke-width="2"/>
  <text x="600" y="305" font-family="Arial" font-size="16" text-anchor="middle" fill="white">Database</text>
  <text x="600" y="325" font-family="Arial" font-size="12" text-anchor="middle" fill="white">SQLite</text>
  
  <!-- User Management (Green) -->
  <rect x="100" y="140" width="200" height="70" rx="10" fill="#28a745" stroke="#1e7e34" stroke-width="2"/>
  <text x="200" y="175" font-family="Arial" font-size="14" text-anchor="middle" fill="white">Standard User Management</text>
  <text x="200" y="195" font-family="Arial" font-size="12" text-anchor="middle" fill="white">Backend</text>
  
  <rect x="100" y="220" width="200" height="70" rx="10" fill="#28a745" stroke="#1e7e34" stroke-width="2"/>
  <text x="200" y="255" font-family="Arial" font-size="14" text-anchor="middle" fill="white">Standard User Management</text>
  <text x="200" y="275" font-family="Arial" font-size="12" text-anchor="middle" fill="white">Frontend</text>
  
  <rect x="100" y="300" width="200" height="70" rx="10" fill="#28a745" stroke="#1e7e34" stroke-width="2"/>
  <text x="200" y="335" font-family="Arial" font-size="14" text-anchor="middle" fill="white">Remote Authentication</text>
  <text x="200" y="355" font-family="Arial" font-size="12" text-anchor="middle" fill="white">Google Sign-in, Backend</text>
  
  <rect x="100" y="380" width="200" height="70" rx="10" fill="#28a745" stroke="#1e7e34" stroke-width="2"/>
  <text x="200" y="415" font-family="Arial" font-size="14" text-anchor="middle" fill="white">Remote Authentication</text>
  <text x="200" y="435" font-family="Arial" font-size="12" text-anchor="middle" fill="white">Google Sign-in, Frontend</text>
  
  <!-- Game Features (Red) -->
  <rect x="100" y="500" width="200" height="80" rx="10" fill="#dc3545" stroke="#bd2130" stroke-width="2"/>
  <text x="200" y="535" font-family="Arial" font-size="14" text-anchor="middle" fill="white">New Game with History</text>
  <text x="200" y="555" font-family="Arial" font-size="14" text-anchor="middle" fill="white">and Matchmaking</text>
  <text x="200" y="575" font-family="Arial" font-size="12" text-anchor="middle" fill="white">Backend</text>
  
  <rect x="100" y="590" width="200" height="80" rx="10" fill="#dc3545" stroke="#bd2130" stroke-width="2"/>
  <text x="200" y="625" font-family="Arial" font-size="14" text-anchor="middle" fill="white">New Game with History</text>
  <text x="200" y="645" font-family="Arial" font-size="14" text-anchor="middle" fill="white">and Matchmaking</text>
  <text x="200" y="665" font-family="Arial" font-size="12" text-anchor="middle" fill="white">Frontend</text>
  
  <rect x="100" y="680" width="200" height="70" rx="10" fill="#dc3545" stroke="#bd2130" stroke-width="2"/>
  <text x="200" y="715" font-family="Arial" font-size="14" text-anchor="middle" fill="white">Game Customization Options</text>
  <text x="200" y="735" font-family="Arial" font-size="12" text-anchor="middle" fill="white">Backend</text>
  
  <rect x="100" y="760" width="200" height="70" rx="10" fill="#dc3545" stroke="#bd2130" stroke-width="2"/>
  <text x="200" y="795" font-family="Arial" font-size="14" text-anchor="middle" fill="white">Game Customization Options</text>
  <text x="200" y="815" font-family="Arial" font-size="12" text-anchor="middle" fill="white">Frontend</text>
  
  <!-- Enhanced Features (Yellow) -->
  <rect x="900" y="140" width="200" height="70" rx="10" fill="#ffc107" stroke="#d39e00" stroke-width="2"/>
  <text x="1000" y="175" font-family="Arial" font-size="14" text-anchor="middle" fill="black">AI Opponent</text>
  <text x="1000" y="195" font-family="Arial" font-size="12" text-anchor="middle" fill="black">Backend</text>
  
  <rect x="900" y="220" width="200" height="70" rx="10" fill="#ffc107" stroke="#d39e00" stroke-width="2"/>
  <text x="1000" y="255" font-family="Arial" font-size="14" text-anchor="middle" fill="black">AI Opponent</text>
  <text x="1000" y="275" font-family="Arial" font-size="12" text-anchor="middle" fill="black">Frontend</text>
  
  <rect x="900" y="300" width="200" height="70" rx="10" fill="#ffc107" stroke="#d39e00" stroke-width="2"/>
  <text x="1000" y="335" font-family="Arial" font-size="14" text-anchor="middle" fill="black">User and Game Stats</text>
  <text x="1000" y="355" font-family="Arial" font-size="12" text-anchor="middle" fill="black">Dashboards, Backend</text>
  
  <rect x="900" y="380" width="200" height="70" rx="10" fill="#ffc107" stroke="#d39e00" stroke-width="2"/>
  <text x="1000" y="415" font-family="Arial" font-size="14" text-anchor="middle" fill="black">User and Game Stats</text>
  <text x="1000" y="435" font-family="Arial" font-size="12" text-anchor="middle" fill="black">Dashboards, Frontend</text>
  
  <!-- Advanced Features (Purple) -->
  <rect x="900" y="500" width="200" height="70" rx="10" fill="#6f42c1" stroke="#5e37a6" stroke-width="2"/>
  <text x="1000" y="535" font-family="Arial" font-size="14" text-anchor="middle" fill="white">Advanced 3D Techniques</text>
  <text x="1000" y="555" font-family="Arial" font-size="12" text-anchor="middle" fill="white">Frontend</text>
  
  <rect x="900" y="580" width="200" height="70" rx="10" fill="#6f42c1" stroke="#5e37a6" stroke-width="2"/>
  <text x="1000" y="615" font-family="Arial" font-size="14" text-anchor="middle" fill="white">Advanced 3D Techniques</text>
  <text x="1000" y="635" font-family="Arial" font-size="12" text-anchor="middle" fill="white">Backend</text>
  
  <!-- Compatibility Features (Orange) -->
  <rect x="500" y="400" width="200" height="70" rx="10" fill="#fd7e14" stroke="#d9480f" stroke-width="2"/>
  <text x="600" y="435" font-family="Arial" font-size="14" text-anchor="middle" fill="white">Support on All Devices</text>
  <text x="600" y="455" font-family="Arial" font-size="12" text-anchor="middle" fill="white">Frontend</text>
  
  <rect x="500" y="480" width="200" height="70" rx="10" fill="#fd7e14" stroke="#d9480f" stroke-width="2"/>
  <text x="600" y="515" font-family="Arial" font-size="14" text-anchor="middle" fill="white">Browser Compatibility</text>
  <text x="600" y="535" font-family="Arial" font-size="12" text-anchor="middle" fill="white">Frontend</text>
  
  <rect x="500" y="560" width="200" height="70" rx="10" fill="#fd7e14" stroke="#d9480f" stroke-width="2"/>
  <text x="600" y="595" font-family="Arial" font-size="14" text-anchor="middle" fill="white">Browser Compatibility</text>
  <text x="600" y="615" font-family="Arial" font-size="12" text-anchor="middle" fill="white">Backend</text>
  
  <rect x="500" y="640" width="200" height="70" rx="10" fill="#fd7e14" stroke="#d9480f" stroke-width="2"/>
  <text x="600" y="675" font-family="Arial" font-size="14" text-anchor="middle" fill="white">Accessibility Features</text>
  <text x="600" y="695" font-family="Arial" font-size="12" text-anchor="middle" fill="white">Frontend</text>
  
  <!-- Monitoring (Cyan) -->
  <rect x="500" y="720" width="200" height="90" rx="10" fill="#17a2b8" stroke="#138496" stroke-width="2"/>
  <text x="600" y="755" font-family="Arial" font-size="14" text-anchor="middle" fill="white">Monitoring System</text>
  <text x="600" y="775" font-family="Arial" font-size="12" text-anchor="middle" fill="white">Prometheus and Grafana</text>
  <text x="600" y="795" font-family="Arial" font-size="12" text-anchor="middle" fill="white">Backend</text>
  
  <!-- Server-Side Pong (Pink) -->
  <rect x="900" y="720" width="200" height="70" rx="10" fill="#e83e8c" stroke="#c1366a" stroke-width="2"/>
  <text x="1000" y="755" font-family="Arial" font-size="14" text-anchor="middle" fill="white">Server-Side Pong and API</text>
  <text x="1000" y="775" font-family="Arial" font-size="12" text-anchor="middle" fill="white">Backend</text>
  
  <rect x="900" y="800" width="200" height="70" rx="10" fill="#e83e8c" stroke="#c1366a" stroke-width="2"/>
  <text x="1000" y="835" font-family="Arial" font-size="14" text-anchor="middle" fill="white">Server-Side Pong and API</text>
  <text x="1000" y="855" font-family="Arial" font-size="12" text-anchor="middle" fill="white">Frontend</text>
  
  <!-- Connection Lines -->
  <!-- Core System Connections -->
  <line x1="600" y1="100" x2="600" y2="140" stroke="#0056b3" stroke-width="2"/>
  <line x1="600" y1="220" x2="600" y2="260" stroke="#0056b3" stroke-width="2"/>
  
  <!-- User Management Connections -->
  <line x1="200" y1="210" x2="200" y2="220" stroke="#1e7e34" stroke-width="2"/>
  <line x1="200" y1="290" x2="200" y2="300" stroke="#1e7e34" stroke-width="2"/>
  <line x1="200" y1="370" x2="200" y2="380" stroke="#1e7e34" stroke-width="2"/>
  
  <!-- Game Features Connections -->
  <line x1="200" y1="580" x2="200" y2="590" stroke="#bd2130" stroke-width="2"/>
  <line x1="200" y1="670" x2="200" y2="680" stroke="#bd2130" stroke-width="2"/>
  <line x1="200" y1="750" x2="200" y2="760" stroke="#bd2130" stroke-width="2"/>
  
  <!-- Enhanced Features Connections -->
  <line x1="1000" y1="210" x2="1000" y2="220" stroke="#d39e00" stroke-width="2"/>
  <line x1="1000" y1="290" x2="1000" y2="300" stroke="#d39e00" stroke-width="2"/>
  <line x1="1000" y1="370" x2="1000" y2="380" stroke="#d39e00" stroke-width="2"/>
  
  <!-- Advanced Features Connections -->
  <line x1="1000" y1="570" x2="1000" y2="580" stroke="#5e37a6" stroke-width="2"/>
  
  <!-- Compatibility Features Connections -->
  <line x1="600" y1="470" x2="600" y2="480" stroke="#d9480f" stroke-width="2"/>
  <line x1="600" y1="550" x2="600" y2="560" stroke="#d9480f" stroke-width="2"/>
  <line x1="600" y1="630" x2="600" y2="640" stroke="#d9480f" stroke-width="2"/>
  <line x1="600" y1="710" x2="600" y2="720" stroke="#d9480f" stroke-width="2"/>
  
  <!-- Server-Side Pong Connections -->
  <line x1="1000" y1="790" x2="1000" y2="800" stroke="#c1366a" stroke-width="2"/>
  
  <!-- Cross-Category Connections -->
  <line x1="300" y1="175" x2="500" y2="60" stroke="#333" stroke-width="1.5" stroke-dasharray="5,5"/>
  <line x1="300" y1="255" x2="500" y2="175" stroke="#333" stroke-width="1.5" stroke-dasharray="5,5"/>
  <line x1="300" y1="335" x2="500" y2="60" stroke="#333" stroke-width="1.5" stroke-dasharray="5,5"/>
  <line x1="300" y1="415" x2="500" y2="175" stroke="#333" stroke-width="1.5" stroke-dasharray="5,5"/>
  
  <line x1="900" y1="175" x2="700" y2="60" stroke="#333" stroke-width="1.5" stroke-dasharray="5,5"/>
  <line x1="900" y1="255" x2="700" y2="175" stroke="#333" stroke-width="1.5" stroke-dasharray="5,5"/>
  <line x1="900" y1="335" x2="700" y2="60" stroke="#333" stroke-width="1.5" stroke-dasharray="5,5"/>
  <line x1="900" y1="415" x2="700" y2="175" stroke="#333" stroke-width="1.5" stroke-dasharray="5,5"/>
  
  <line x1="300" y1="540" x2="500" y2="300" stroke="#333" stroke-width="1.5" stroke-dasharray="5,5"/>
  <line x1="300" y1="630" x2="500" y2="175" stroke="#333" stroke-width="1.5" stroke-dasharray="5,5"/>
  <line x1="300" y1="715" x2="500" y2="300" stroke="#333" stroke-width="1.5" stroke-dasharray="5,5"/>
  <line x1="300" y1="795" x2="500" y2="175" stroke="#333" stroke-width="1.5" stroke-dasharray="5,5"/>
  
  <line x1="900" y1="535" x2="700" y2="175" stroke="#333" stroke-width="1.5" stroke-dasharray="5,5"/>
  <line x1="900" y1="615" x2="700" y2="60" stroke="#333" stroke-width="1.5" stroke-dasharray="5,5"/>
  
  <line x1="900" y1="755" x2="700" y2="300" stroke="#333" stroke-width="1.5" stroke-dasharray="5,5"/>
  <line x1="900" y1="835" x2="700" y2="175" stroke="#333" stroke-width="1.5" stroke-dasharray="5,5"/>
  
  <!-- Legend -->
  <rect x="50" y="30" width="20" height="20" fill="#007bff"/>
  <text x="80" y="45" font-family="Arial" font-size="14" text-anchor="start">Core System</text>
  
  <rect x="50" y="60" width="20" height="20" fill="#28a745"/>
  <text x="80" y="75" font-family="Arial" font-size="14" text-anchor="start">User Management</text>
  
  <rect x="50" y="90" width="20" height="20" fill="#dc3545"/>
  <text x="80" y="105" font-family="Arial" font-size="14" text-anchor="start">Game Features</text>
  
  <rect x="200" y="30" width="20" height="20" fill="#ffc107"/>
  <text x="230" y="45" font-family="Arial" font-size="14" text-anchor="start">Enhanced Features</text>
  
  <rect x="200" y="60" width="20" height="20" fill="#6f42c1"/>
  <text x="230" y="75" font-family="Arial" font-size="14" text-anchor="start">Advanced 3D</text>
  
  <rect x="200" y="90" width="20" height="20" fill="#fd7e14"/>
  <text x="230" y="105" font-family="Arial" font-size="14" text-anchor="start">Compatibility Features</text>
  
  <rect x="350" y="30" width="20" height="20" fill="#17a2b8"/>
  <text x="380" y="45" font-family="Arial" font-size="14" text-anchor="start">Monitoring</text>
  
  <rect x="350" y="60" width="20" height="20" fill="#e83e8c"/>
  <text x="380" y="75" font-family="Arial" font-size="14" text-anchor="start">Server-Side Pong</text>
</svg>
